<svg width="174" height="43" viewBox="0 0 174 43" fill="none" xmlns="http://www.w3.org/2000/svg">
<path d="M45.5959 14.216V32H40.3039V14.216H45.5959ZM44.1199 6.368C45.1759 6.368 45.7039 6.908 45.7039 7.988V9.896C45.7039 10.976 45.1759 11.516 44.1199 11.516H41.8159C40.7599 11.516 40.2319 10.976 40.2319 9.896V7.988C40.2319 6.908 40.7599 6.368 41.8159 6.368H44.1199ZM62.4931 13.748C65.8531 13.748 67.5331 15.392 67.5331 18.68V32H62.2051V20.336C62.2051 19.544 62.0611 19.004 61.7731 18.716C61.4851 18.404 60.9931 18.248 60.2971 18.248C59.5291 18.248 58.7371 18.404 57.9211 18.716C57.1051 19.004 56.0971 19.46 54.8971 20.084L54.6451 17.096C55.9171 16.016 57.2131 15.188 58.5331 14.612C59.8771 14.036 61.1971 13.748 62.4931 13.748ZM54.3931 14.216L55.0051 17.744L55.4371 18.212V32H50.1091V14.216H54.3931ZM77.8142 13.748C79.0622 13.748 80.2622 13.928 81.4142 14.288C82.5902 14.648 83.6222 15.236 84.5102 16.052L84.1502 18.5C83.3342 18.26 82.6022 18.044 81.9542 17.852C81.3062 17.66 80.5502 17.564 79.6862 17.564C78.9422 17.564 78.3422 17.696 77.8862 17.96C77.4302 18.224 77.0942 18.74 76.8782 19.508C76.6622 20.276 76.5542 21.416 76.5542 22.928C76.5542 24.344 76.6502 25.424 76.8422 26.168C77.0582 26.888 77.3822 27.392 77.8142 27.68C78.2702 27.944 78.8462 28.076 79.5422 28.076C80.1662 28.076 80.7062 28.016 81.1622 27.896C81.6182 27.752 82.0742 27.548 82.5302 27.284C82.9862 26.996 83.5022 26.648 84.0782 26.24L84.4742 28.868C83.7542 29.876 82.8182 30.728 81.6662 31.424C80.5142 32.096 79.0982 32.432 77.4182 32.432C75.1382 32.432 73.5062 31.616 72.5222 29.984C71.5622 28.352 71.0822 26.012 71.0822 22.964C71.0822 20.588 71.3222 18.74 71.8022 17.42C72.3062 16.076 73.0622 15.128 74.0702 14.576C75.0782 14.024 76.3262 13.748 77.8142 13.748ZM88.8662 6.8V32H84.6542L84.1142 28.724L83.5382 28.328V16.664L83.7542 16.196C83.6822 15.452 83.6222 14.708 83.5742 13.964C83.5502 13.196 83.5382 12.416 83.5382 11.624V6.8H88.8662ZM101.635 13.748C104.635 13.748 106.783 14.264 108.079 15.296C109.399 16.304 110.059 17.816 110.059 19.832C110.083 21.464 109.675 22.688 108.835 23.504C107.995 24.296 106.543 24.692 104.479 24.692H94.5427V21.704H103.003C103.819 21.704 104.335 21.536 104.551 21.2C104.791 20.84 104.911 20.348 104.911 19.724C104.887 18.884 104.635 18.308 104.155 17.996C103.699 17.66 102.919 17.492 101.815 17.492C100.831 17.492 100.063 17.624 99.5107 17.888C98.9587 18.152 98.5747 18.656 98.3587 19.4C98.1427 20.144 98.0347 21.224 98.0347 22.64C98.0347 24.128 98.1667 25.28 98.4307 26.096C98.6947 26.888 99.1387 27.44 99.7627 27.752C100.411 28.064 101.299 28.22 102.427 28.22C103.243 28.22 104.251 28.196 105.451 28.148C106.675 28.076 107.899 27.968 109.123 27.824L109.627 31.1C108.931 31.436 108.139 31.7 107.251 31.892C106.363 32.084 105.451 32.216 104.515 32.288C103.579 32.384 102.679 32.432 101.815 32.432C99.5587 32.432 97.7347 32.108 96.3427 31.46C94.9747 30.788 93.9787 29.768 93.3547 28.4C92.7547 27.032 92.4547 25.28 92.4547 23.144C92.4547 20.816 92.7667 18.968 93.3907 17.6C94.0147 16.232 94.9987 15.248 96.3427 14.648C97.6867 14.048 99.4507 13.748 101.635 13.748ZM130.957 14.216L125.809 22.892L131.353 32H125.953L120.697 22.892L125.557 14.216H130.957ZM117.457 14.216L122.317 22.892L117.097 32H111.661L117.205 22.892L112.057 14.216H117.457ZM124.333 21.164V24.476H118.717V21.164H124.333ZM141.818 13.748C144.818 13.748 146.966 14.264 148.262 15.296C149.582 16.304 150.242 17.816 150.242 19.832C150.266 21.464 149.858 22.688 149.018 23.504C148.178 24.296 146.726 24.692 144.662 24.692H134.726V21.704H143.186C144.002 21.704 144.518 21.536 144.734 21.2C144.974 20.84 145.094 20.348 145.094 19.724C145.07 18.884 144.818 18.308 144.338 17.996C143.882 17.66 143.102 17.492 141.998 17.492C141.014 17.492 140.246 17.624 139.694 17.888C139.142 18.152 138.758 18.656 138.542 19.4C138.326 20.144 138.218 21.224 138.218 22.64C138.218 24.128 138.35 25.28 138.614 26.096C138.878 26.888 139.322 27.44 139.946 27.752C140.594 28.064 141.482 28.22 142.61 28.22C143.426 28.22 144.434 28.196 145.634 28.148C146.858 28.076 148.082 27.968 149.306 27.824L149.81 31.1C149.114 31.436 148.322 31.7 147.434 31.892C146.546 32.084 145.634 32.216 144.698 32.288C143.762 32.384 142.862 32.432 141.998 32.432C139.742 32.432 137.918 32.108 136.526 31.46C135.158 30.788 134.162 29.768 133.538 28.4C132.938 27.032 132.638 25.28 132.638 23.144C132.638 20.816 132.95 18.968 133.574 17.6C134.198 16.232 135.182 15.248 136.526 14.648C137.87 14.048 139.634 13.748 141.818 13.748ZM159.799 13.748C161.047 13.748 162.247 13.928 163.399 14.288C164.575 14.648 165.607 15.236 166.495 16.052L166.135 18.5C165.319 18.26 164.587 18.044 163.939 17.852C163.291 17.66 162.535 17.564 161.671 17.564C160.927 17.564 160.327 17.696 159.871 17.96C159.415 18.224 159.079 18.74 158.863 19.508C158.647 20.276 158.539 21.416 158.539 22.928C158.539 24.344 158.635 25.424 158.827 26.168C159.043 26.888 159.367 27.392 159.799 27.68C160.255 27.944 160.831 28.076 161.527 28.076C162.151 28.076 162.691 28.016 163.147 27.896C163.603 27.752 164.059 27.548 164.515 27.284C164.971 26.996 165.487 26.648 166.063 26.24L166.459 28.868C165.739 29.876 164.803 30.728 163.651 31.424C162.499 32.096 161.083 32.432 159.403 32.432C157.123 32.432 155.491 31.616 154.507 29.984C153.547 28.352 153.067 26.012 153.067 22.964C153.067 20.588 153.307 18.74 153.787 17.42C154.291 16.076 155.047 15.128 156.055 14.576C157.063 14.024 158.311 13.748 159.799 13.748ZM170.851 6.8V32H166.639L166.099 28.724L165.523 28.328V16.664L165.739 16.196C165.667 15.452 165.607 14.708 165.559 13.964C165.535 13.196 165.523 12.416 165.523 11.624V6.8H170.851Z" fill="white"/>
<g filter="url(#filter0_dd_4604_6267)">
<path fill-rule="evenodd" clip-rule="evenodd" d="M16.292 7.52185C16.1371 7.55478 15.9914 7.63891 15.6999 7.80718L3.8 14.6776C3.50856 14.8459 3.36284 14.93 3.25686 15.0477C3.16308 15.1519 3.09225 15.2745 3.04894 15.4078C3 15.5585 3 15.7267 3 16.0633L3 29.8041C3 30.1406 3 30.3089 3.04894 30.4595C3.09225 30.5928 3.16308 30.7155 3.25686 30.8197C3.36283 30.9374 3.50855 31.0215 3.79997 31.1897L3.8 31.1898L15.6999 38.0602L15.7 38.0602C15.9914 38.2285 16.1371 38.3126 16.292 38.3455C16.4291 38.3747 16.5708 38.3747 16.7078 38.3455C16.8628 38.3126 17.0085 38.2285 17.2999 38.0602L17.2999 38.0602L29.1999 31.1898L29.1999 31.1897C29.4913 31.0215 29.637 30.9374 29.743 30.8197C29.8368 30.7155 29.9076 30.5928 29.9509 30.4595C29.9999 30.3089 29.9999 30.1406 29.9999 29.8041V16.0633C29.9999 15.7267 29.9999 15.5585 29.9509 15.4078C29.9076 15.2745 29.8368 15.1519 29.743 15.0477C29.637 14.93 29.4913 14.8459 29.1999 14.6776L17.2999 7.80718C17.0085 7.63891 16.8628 7.55478 16.7078 7.52185C16.5708 7.49272 16.4291 7.49272 16.292 7.52185ZM16.4998 28.7796C19.7283 28.7796 22.3455 26.1624 22.3455 22.934C22.3455 19.7055 19.7283 17.0883 16.4998 17.0883C13.2714 17.0883 10.6542 19.7055 10.6542 22.934C10.6542 26.1624 13.2714 28.7796 16.4998 28.7796Z" fill="url(#paint0_linear_4604_6267)"/>
</g>
<defs>
<filter id="filter0_dd_4604_6267" x="0" y="5.5" width="32.9999" height="36.8674" filterUnits="userSpaceOnUse" color-interpolation-filters="sRGB">
<feFlood flood-opacity="0" result="BackgroundImageFix"/>
<feColorMatrix in="SourceAlpha" type="matrix" values="0 0 0 0 0 0 0 0 0 0 0 0 0 0 0 0 0 0 127 0" result="hardAlpha"/>
<feOffset dy="1"/>
<feGaussianBlur stdDeviation="1"/>
<feColorMatrix type="matrix" values="0 0 0 0 0 0 0 0 0 0 0 0 0 0 0 0 0 0 0.06 0"/>
<feBlend mode="normal" in2="BackgroundImageFix" result="effect1_dropShadow_4604_6267"/>
<feColorMatrix in="SourceAlpha" type="matrix" values="0 0 0 0 0 0 0 0 0 0 0 0 0 0 0 0 0 0 127 0" result="hardAlpha"/>
<feOffset dy="1"/>
<feGaussianBlur stdDeviation="1.5"/>
<feColorMatrix type="matrix" values="0 0 0 0 0 0 0 0 0 0 0 0 0 0 0 0 0 0 0.1 0"/>
<feBlend mode="normal" in2="effect1_dropShadow_4604_6267" result="effect2_dropShadow_4604_6267"/>
<feBlend mode="normal" in="SourceGraphic" in2="effect2_dropShadow_4604_6267" result="shape"/>
</filter>
<linearGradient id="paint0_linear_4604_6267" x1="16.4999" y1="7.5" x2="16.4999" y2="38.3674" gradientUnits="userSpaceOnUse">
<stop stop-color="#6B7280"/>
<stop offset="1" stop-color="#2F353D"/>
</linearGradient>
</defs>
</svg>
