<svg fill="none" height="37" viewBox="0 0 33 37" width="33" xmlns="http://www.w3.org/2000/svg" xmlns:xlink="http://www.w3.org/1999/xlink"><filter id="a" color-interpolation-filters="sRGB" filterUnits="userSpaceOnUse" height="36.8674" width="32.9999" x="0" y="0"><feFlood flood-opacity="0" result="BackgroundImageFix"/><feColorMatrix in="SourceAlpha" result="hardAlpha" type="matrix" values="0 0 0 0 0 0 0 0 0 0 0 0 0 0 0 0 0 0 127 0"/><feOffset dy="1"/><feGaussianBlur stdDeviation="1"/><feColorMatrix type="matrix" values="0 0 0 0 0 0 0 0 0 0 0 0 0 0 0 0 0 0 0.06 0"/><feBlend in2="BackgroundImageFix" mode="normal" result="effect1_dropShadow_4604_6266"/><feColorMatrix in="SourceAlpha" result="hardAlpha" type="matrix" values="0 0 0 0 0 0 0 0 0 0 0 0 0 0 0 0 0 0 127 0"/><feOffset dy="1"/><feGaussianBlur stdDeviation="1.5"/><feColorMatrix type="matrix" values="0 0 0 0 0 0 0 0 0 0 0 0 0 0 0 0 0 0 0.1 0"/><feBlend in2="effect1_dropShadow_4604_6266" mode="normal" result="effect2_dropShadow_4604_6266"/><feBlend in="SourceGraphic" in2="effect2_dropShadow_4604_6266" mode="normal" result="shape"/></filter><linearGradient id="b" gradientUnits="userSpaceOnUse" x1="16.4999" x2="16.4999" y1="2" y2="32.8674"><stop offset="0" stop-color="#6b7280"/><stop offset="1" stop-color="#2f353d"/></linearGradient><g filter="url(#a)"><path clip-rule="evenodd" d="m16.292 2.02185c-.1549.03293-.3006.11706-.5921.28533l-11.8999 6.87043c-.29144.16827-.43716.2524-.54314.3701-.09378.10414-.16461.22683-.20792.36011-.04894.15068-.04894.31888-.04894.65548v13.7408c0 .3365 0 .5048.04894.6554.04331.1333.11414.256.20792.3602.10597.1177.25169.2018.54311.37l.00003.0001 11.8999 6.8704h.0001c.2914.1683.4371.2524.592.2853.1371.0292.2788.0292.4158 0 .155-.0329.3007-.117.5921-.2853l11.9-6.8704v-.0001c.2914-.1682.4371-.2523.5431-.37.0938-.1042.1646-.2269.2079-.3602.049-.1506.049-.3189.049-.6554v-13.7408c0-.3366 0-.5048-.049-.65548-.0433-.13328-.1141-.25597-.2079-.36011-.106-.1177-.2517-.20183-.5431-.3701l-11.9-6.87043c-.2914-.16827-.4371-.2524-.5921-.28533-.137-.02913-.2787-.02913-.4158 0zm.2078 21.25775c3.2285 0 5.8457-2.6172 5.8457-5.8456 0-3.2285-2.6172-5.8457-5.8457-5.8457-3.2284 0-5.8456 2.6172-5.8456 5.8457 0 3.2284 2.6172 5.8456 5.8456 5.8456z" fill="url(#b)" fill-rule="evenodd"/></g></svg>